{
  "accessors": [
    {
      "bufferView": 2,
      "componentType": 5126,
      "count": 4811,
      "max": [
        0.6777515411376953,
        0.4071146249771118,
        3.0005457401275635
      ],
      "min": [
        -0.563917338848114,
        -0.38017958402633667,
        0.001512738410383463
      ],
      "type": "VEC3"
    },
    {
      "bufferView": 2,
      "byteOffset": 57732,
      "componentType": 5126,
      "count": 4811,
      "max": [
        0.9992632269859314,
        0.9999599456787109,
        0.9998587369918823
      ],
      "min": [
        -0.9999361634254456,
        -0.9999270439147949,
        -1.0
      ],
      "type": "VEC3"
    },
    {
      "bufferView": 3,
      "componentType": 5126,
      "count": 4811,
      "max": [
        0.9998919367790222,
        0.9987351894378662,
        0.8800934553146362,
        1.0
      ],
      "min": [
        -0.9999568462371826,
        -0.9999734163284302,
        -0.9990197420120239,
        -1.0
      ],
      "type": "VEC4"
    },
    {
      "bufferView": 1,
      "componentType": 5126,
      "count": 4811,
      "max": [
        0.9941041469573975,
        0.9832012057304382
      ],
      "min": [
        0.01865994930267334,
        0.008524894714355469
      ],
      "type": "VEC2"
    },
    {
      "bufferView": 0,
      "componentType": 5125,
      "count": 27708,
      "type": "SCALAR"
    }
  ],
  "asset": {
    "extras": {
      "author": "plasmaernst (https://sketchfab.com/plasmaernst)",
      "license": "CC-BY-NC-4.0 (http://creativecommons.org/licenses/by-nc/4.0/)",
      "source": "https://sketchfab.com/3d-models/maenad-processed-1238c04b2dc84e0fa6a698c52dba4ae2",
      "title": "\"Maenad\", processed"
    },
    "generator": "Sketchfab-14.41.0",
    "version": "2.0"
  },
  "bufferViews": [
    {
      "buffer": 0,
      "byteLength": 110832,
      "name": "floatBufferViews",
      "target": 34963
    },
    {
      "buffer": 0,
      "byteLength": 38488,
      "byteOffset": 110832,
      "byteStride": 8,
      "name": "floatBufferViews",
      "target": 34962
    },
    {
      "buffer": 0,
      "byteLength": 115464,
      "byteOffset": 149320,
      "byteStride": 12,
      "name": "floatBufferViews",
      "target": 34962
    },
    {
      "buffer": 0,
      "byteLength": 76976,
      "byteOffset": 264784,
      "byteStride": 16,
      "name": "floatBufferViews",
      "target": 34962
    }
  ],
  "buffers": [
    {
      "byteLength": 341760,
      "uri": "scene.bin"
    }
  ],
  "images": [
    {
      "uri": "textures/M_Manead_baseColor.png"
    },
    {
      "uri": "textures/M_Manead_metallicRoughness.png"
    },
    {
      "uri": "textures/M_Manead_normal.png"
    }
  ],
  "materials": [
    {
      "doubleSided": true,
      "name": "M_Manead",
      "normalTexture": {
        "index": 2
      },
      "occlusionTexture": {
        "index": 1,
        "strength": 0.5104777462178932
      },
      "pbrMetallicRoughness": {
        "baseColorTexture": {
          "index": 0
        },
        "metallicFactor": 0.0,
        "metallicRoughnessTexture": {
          "index": 1
        }
      }
    }
  ],
  "meshes": [
    {
      "name": "ManeadAndHead_low_M_Manead_0",
      "primitives": [
        {
          "attributes": {
            "NORMAL": 1,
            "POSITION": 0,
            "TANGENT": 2,
            "TEXCOORD_0": 3
          },
          "indices": 4,
          "material": 0,
          "mode": 4
        }
      ]
    }
  ],
  "nodes": [
    {
      "children": [
        1
      ],
      "matrix": [
        1.0,
        0.0,
        0.0,
        0.0,
        0.0,
        2.220446049250313e-16,
        -1.0,
        0.0,
        0.0,
        1.0,
        2.220446049250313e-16,
        0.0,
        0.0,
        0.0,
        0.0,
        1.0
      ],
      "name": "Sketchfab_model"
    },
    {
      "children": [
        2
      ],
      "matrix": [
        0.009999999776482582,
        0.0,
        0.0,
        0.0,
        0.0,
        0.0,
        0.009999999776482582,
        0.0,
        0.0,
        -0.009999999776482582,
        0.0,
        0.0,
        0.0,
        0.0,
        0.0,
        1.0
      ],
      "name": "89da1d502bcc4dbeb22622b61a4f22f5.fbx"
    },
    {
      "children": [
        3
      ],
      "name": "RootNode"
    },
    {
      "children": [
        4
      ],
      "matrix": [
        100.0,
        0.0,
        0.0,
        0.0,
        0.0,
        -1.629206793918314e-05,
        -99.99999999999868,
        0.0,
        0.0,
        99.99999999999868,
        -1.629206793918314e-05,
        0.0,
        0.0,
        0.0,
        0.0,
        1.0
      ],
      "name": "ManeadAndHead_low"
    },
    {
      "mesh": 0,
      "name": "ManeadAndHead_low_M_Manead_0"
    }
  ],
  "samplers": [
    {
      "magFilter": 9729,
      "minFilter": 9987,
      "wrapS": 10497,
      "wrapT": 10497
    }
  ],
  "scene": 0,
  "scenes": [
    {
      "name": "Sketchfab_Scene",
      "nodes": [
        0
      ]
    }
  ],
  "textures": [
    {
      "sampler": 0,
      "source": 0
    },
    {
      "sampler": 0,
      "source": 1
    },
    {
      "sampler": 0,
      "source": 2
    }
  ]
}
